<?xml version="1.0" standalone="no"?>
<svg viewBox="0 0 200 200" xmlns="http://www.w3.org/2000/svg">
  <path fill="#FFFFFF" d="M35.9,-62.5C47.8,-55.2,59.8,-48.3,69.6,-38C79.3,-27.6,86.8,-13.8,85.6,-0.7C84.3,12.4,74.3,24.7,66.1,37.8C57.9,50.9,51.6,64.6,40.9,74.1C30.2,83.5,15.1,88.5,-0.2,88.9C-15.5,89.2,-31,84.9,-43.4,76.4C-55.7,68,-65,55.4,-68.3,42C-71.6,28.6,-68.9,14.3,-67.7,0.7C-66.5,-12.9,-66.8,-25.8,-63.7,-39.7C-60.7,-53.6,-54.5,-68.6,-43.3,-76.3C-32.1,-84,-16.1,-84.6,-2.1,-81C12,-77.4,23.9,-69.8,35.9,-62.5Z" transform="translate(100 100)" />
</svg>
